<svg width="200" height="200" viewBox="0 0 200 200" xmlns="http://www.w3.org/2000/svg">
  <defs>
    <linearGradient id="g" x1="0%" y1="0%" x2="100%" y2="100%">
      <stop offset="0%" style="stop-color:#ef5350;stop-opacity:1" />
      <stop offset="100%" style="stop-color:#c62828;stop-opacity:1" />
    </linearGradient>
  </defs>
  <path d="M50 80 L50 160 L150 160 L150 80 L130 80 L130 60 L70 60 L70 80 Z" fill="url(#g)" stroke="#b71c1c" stroke-width="3"/>
  <rect x="75" y="90" width="15" height="15" fill="white" stroke="#b71c1c" stroke-width="1.5"/>
  <rect x="110" y="90" width="15" height="15" fill="white" stroke="#b71c1c" stroke-width="1.5"/>
  <rect x="92.5" y="140" width="15" height="20" fill="#fff9c4" stroke="#fbc02d" stroke-width="1.5"/>
  <path d="M100 65 C105 55, 115 60, 115 70 C115 80, 100 90, 100 90 C100 90, 85 80, 85 70 C85 60, 95 55, 100 65 Z" fill="white" stroke="#b71c1c" stroke-width="1.5"/>
  <line x1="100" y1="100" x2="100" y2="110" stroke="#b71c1c" stroke-width="2" stroke-linecap="round"/>
  <line x1="95" y1="105" x2="105" y2="105" stroke="#b71c1c" stroke-width="2" stroke-linecap="round"/>
  <text x="100" y="185" font-family="sans-serif" font-size="18" font-weight="bold" fill="#e2e8f0" text-anchor="middle">¶t</text>
</svg>
