<svg xmlns="http://www.w3.org/2000/svg" viewBox="0 0 64 64" width="64" height="64">
  <!-- Building body -->
  <rect x="8" y="22" width="48" height="36" rx="3" fill="#dc2626"/>
  <!-- Roof -->
  <polygon points="4,24 32,6 60,24" fill="#ef4444"/>
  <!-- Heart shape -->
  <path d="M32 48 C32 48 16 38 16 28 C16 22 20 18 26 18 C28 18 30 19 32 21 C34 19 36 18 38 18 C44 18 48 22 48 28 C48 38 32 48 32 48Z" fill="white" opacity="0.9"/>
  <!-- Plus sign in heart -->
  <rect x="29" y="26" width="6" height="12" rx="1" fill="#dc2626" opacity="0.7"/>
  <rect x="25" y="30" width="14" height="4" rx="1" fill="#dc2626" opacity="0.7"/>
</svg>
